<?xml version="1.0" encoding="utf-8"?>
<!-- Generator: Adobe Illustrator 29.8.1, SVG Export Plug-In . SVG Version: 9.03 Build 0)  -->
<svg version="1.1" id="Layer_1" xmlns="http://www.w3.org/2000/svg" xmlns:xlink="http://www.w3.org/1999/xlink" x="0px" y="0px"
	 viewBox="0 0 1200 1200" style="enable-background:new 0 0 1200 1200;" xml:space="preserve">
<style type="text/css">
	.st0{fill:#08888C;}
</style>
<path class="st0" d="M821.7,774.5h-0.3l-44.3-67.2h-17.4v90.5h15.5v-66.6h0.3l44.2,66.6h17.4v-90.5h-15.4V774.5z M1138.8,501.9
	c0-46.5-20.3-70.7-58.7-70.7h-45.3v141.3h45.3C1119.4,572.5,1138.8,549,1138.8,501.9 M1173.7,501.9c0,65.4-33.7,101.8-91.5,101.8
	H1000V400.1h82.8c28.2,0,50.6,9,66.5,26.8C1165.6,444.6,1173.7,469.6,1173.7,501.9 M991.2,752.5c0-20.7-9-31.4-26.1-31.4H945v62.8
	h20.1C982.6,783.9,991.2,773.4,991.2,752.5 M995.9,719.1c7.2,7.9,10.9,19,10.9,33.4c0,29.1-15,45.2-40.7,45.2h-36.6v-90.5h36.8
	C978.8,707.2,988.8,711.2,995.9,719.1 M829.3,603.6h34.6V400.1h-34.6V603.6z M681.1,400.1h-34.9v25.1v58.1v32.3v7.2h-92.4v-7.2
	v-32.3v-58.1v-25.1h-34.9v122.7h-53.8v10.5h53.8v70.4h34.9v-30.3v-40.1h92.4v40.1v30.3h34.9v-70.4h53.8v-10.5h-53.8V400.1z
	 M648.3,768.1l-8-21.3c-3-7.9-4.9-15.9-5.9-24h-5.6c-1,8-3,16-6,24l-8,21.3H648.3z M640.5,707.2l34.9,90.5h-16l-6.1-16.2h-43.5
	l-6.1,16.2h-16l34.7-90.5H640.5z M346.4,522.7L333.8,489c-6.7-17.7-11-35.8-13.4-54.1h-12.5c-2.3,18-6.7,36.1-13.4,54.1l-12.6,33.7
	H346.4z M334.3,400.1l78.4,203.6h-36L366,575.3L351.7,537l0,0l-1.4-3.8h-72.4l-1.4,3.8l-14.3,38.2l-10.7,28.4h-36L293.7,400
	L334.3,400.1L334.3,400.1z M26.3,603.6h34.9v-52.7v-17.7h81.6v-10.5H61.2v-28.1v-17.7v-45.7h102.6v-31.1H26.3V603.6z M466.4,707.2
	h-15.5v90.5h58.8v-14h-43.3V707.2z M185.8,797.7h15.4v-90.5h-15.4V797.7z M309.2,730.2c0.5,6.1,2.6,8.8,9.4,11.4
	c5,1.6,8.5,2.3,16.8,3.7c17.7,3.2,27.8,10.7,27.8,26.9c0,8.7-3.2,15.5-9.8,20.4c-6.6,4.8-15.2,7.2-26.1,7.2
	c-22.3,0-35.8-11.8-36.7-30l14.1-2.6c0.5,12.8,9.3,19.5,23.4,19.5c12.4,0,19.5-5,19.5-13.5c0-4.7-1.7-8-5.2-10
	c-3.4-2.1-9-3.9-17-5.3c-20.7-3.5-31.6-10.6-31.6-26.6c0-16.7,13.3-26.5,33.6-26.5c10.2,0,18.6,2.5,25.2,7.5
	c6.6,4.9,10.2,11.4,10.7,19.5l-14.5,3.1c-1.2-11.3-9.2-17.3-21.6-17.3C315.6,717.8,309.2,722.6,309.2,730.2"/>
</svg>
